<svg xmlns="http://www.w3.org/2000/svg" fill="none" viewBox="0 0 512 512"><g clip-path="url(#a)"><rect width="512" height="512" fill="#F2F7BA" rx="102.4"/><path fill="#ADA185" d="M0 66h512v12H0zM0 158h512v12H0zM0 250h512v12H0zM0 342h512v12H0zM0 434h512v12H0z"/><rect width="500" height="500" x="6" y="6" stroke="#ADA185" stroke-width="12" rx="96.4"/><g filter="url(#b)"><rect width="512" height="512" fill="url(#c)" rx="102.4"/></g><g clip-path="url(#d)" filter="url(#e)"><path fill="url(#f)" fill-rule="evenodd" d="M77 396.276v-45.34c18.892-6.297 34.792-13.067 47.702-20.309a112.088 112.088 0 0 0 13.13-8.548c4.477-3.413 8.347-7.003 11.609-10.768a60.48 60.48 0 0 0 4.071-5.243c6.297-9.131 9.446-19.994 9.446-32.588a30.51 30.51 0 0 0-1.219-8.879 22.521 22.521 0 0 0-9.172-12.375 255.582 255.582 0 0 0-11.127-7.141 336.7 336.7 0 0 0-12.535-7.264l-.425-.236a78.167 78.167 0 0 1-21.773-17.956 90.65 90.65 0 0 1-2.314-2.825c-4.975-6.329-8.164-14.931-9.569-25.806-.569-4.6-.843-9.232-.821-13.867a74.776 74.776 0 0 1 2.172-18.57 51.56 51.56 0 0 1 16.247-26.77c12.28-10.705 27.866-16.058 46.757-16.058a82.103 82.103 0 0 1 29.698 5.195 73.701 73.701 0 0 1 28.867 20.309c13.873 15.611 21.379 36.524 22.519 62.74.102 2.385.153 4.772.151 7.16 0 40.302-12.437 77.141-37.311 110.517-19.188 25.749-48.593 46.439-88.215 62.069A377.657 377.657 0 0 1 77 396.276Zm194.586 0v-45.34c18.892-6.297 34.635-13.067 47.229-20.309 10.699-6.152 19.128-12.988 25.287-20.507a61.633 61.633 0 0 0 3.051-4.052c6.297-9.131 9.446-19.994 9.446-32.588a30.476 30.476 0 0 0-1.219-8.879 22.517 22.517 0 0 0-9.172-12.375 254.978 254.978 0 0 0-11.127-7.141 335.888 335.888 0 0 0-12.535-7.264l-.425-.236a78.148 78.148 0 0 1-21.772-17.956 90.681 90.681 0 0 1-2.315-2.825c-4.975-6.329-8.164-14.931-9.568-25.806-.57-4.6-.844-9.232-.822-13.867a72.687 72.687 0 0 1 2.333-18.958 51.31 51.31 0 0 1 16.559-26.382 66.805 66.805 0 0 1 34.874-15.236 89.727 89.727 0 0 1 12.355-.822 82.11 82.11 0 0 1 29.698 5.195 73.708 73.708 0 0 1 28.867 20.309c13.873 15.611 21.379 36.524 22.519 62.74.102 2.385.152 4.772.151 7.16 0 40.302-12.437 77.141-37.311 110.517-19.188 25.749-48.593 46.439-88.216 62.069a377.605 377.605 0 0 1-37.887 12.553Z" clip-rule="evenodd"/></g></g><defs><clipPath id="a"><rect width="512" height="512" fill="#fff" rx="102.4"/></clipPath><clipPath id="d"><path fill="#fff" d="M0 0h358v280.553H0z" transform="rotate(180 217.5 198.138)"/></clipPath><filter id="b" width="512" height="512" x="0" y="0" color-interpolation-filters="sRGB" filterUnits="userSpaceOnUse"><feFlood flood-opacity="0" result="BackgroundImageFix"/><feBlend in="SourceGraphic" in2="BackgroundImageFix" result="shape"/><feColorMatrix in="SourceAlpha" result="hardAlpha" values="0 0 0 0 0 0 0 0 0 0 0 0 0 0 0 0 0 0 127 0"/><feOffset/><feGaussianBlur stdDeviation="12"/><feComposite in2="hardAlpha" k2="-1" k3="1" operator="arithmetic"/><feColorMatrix values="0 0 0 0 0.847059 0 0 0 0 0.878431 0 0 0 0 0.443137 0 0 0 0.25 0"/><feBlend in2="shape" result="effect1_innerShadow_18_3633"/><feColorMatrix in="SourceAlpha" result="hardAlpha" values="0 0 0 0 0 0 0 0 0 0 0 0 0 0 0 0 0 0 127 0"/><feOffset/><feGaussianBlur stdDeviation="12"/><feComposite in2="hardAlpha" k2="-1" k3="1" operator="arithmetic"/><feColorMatrix values="0 0 0 0 0 0 0 0 0 0 0 0 0 0 0 0 0 0 0.2 0"/><feBlend in2="effect1_innerShadow_18_3633" result="effect2_innerShadow_18_3633"/></filter><filter id="e" width="358" height="280.553" x="77" y="115.724" color-interpolation-filters="sRGB" filterUnits="userSpaceOnUse"><feFlood flood-opacity="0" result="BackgroundImageFix"/><feBlend in="SourceGraphic" in2="BackgroundImageFix" result="shape"/><feColorMatrix in="SourceAlpha" result="hardAlpha" values="0 0 0 0 0 0 0 0 0 0 0 0 0 0 0 0 0 0 127 0"/><feOffset dy="8"/><feComposite in2="hardAlpha" k2="-1" k3="1" operator="arithmetic"/><feColorMatrix values="0 0 0 0 1 0 0 0 0 1 0 0 0 0 1 0 0 0 0.2 0"/><feBlend in2="shape" result="effect1_innerShadow_18_3633"/><feColorMatrix in="SourceAlpha" result="hardAlpha" values="0 0 0 0 0 0 0 0 0 0 0 0 0 0 0 0 0 0 127 0"/><feOffset dy="-4"/><feComposite in2="hardAlpha" k2="-1" k3="1" operator="arithmetic"/><feColorMatrix values="0 0 0 0 0 0 0 0 0 0 0 0 0 0 0 0 0 0 0.25 0"/><feBlend in2="effect1_innerShadow_18_3633" result="effect2_innerShadow_18_3633"/></filter><radialGradient id="c" cx="0" cy="0" r="1" gradientTransform="rotate(90 0 256) scale(256)" gradientUnits="userSpaceOnUse"><stop stop-color="#fff" stop-opacity=".7"/><stop offset=".9" stop-color="#fff" stop-opacity=".1"/></radialGradient><linearGradient id="f" x1="256" x2="256" y1="115.728" y2="396.276" gradientUnits="userSpaceOnUse"><stop stop-color="#887A5E"/><stop offset="1" stop-color="#6A5F49"/></linearGradient></defs></svg>